HIERARCHY
ROOT root
{
	OFFSET 0.000000 0.000000 0.000000
	CHANNELS 6 Xposition Yposition Zposition Zrotation Yrotation Xrotation
	JOINT lhip
	{
		OFFSET 0.058581 -0.082280 -0.017664
		CHANNELS 3 Zrotation Yrotation Xrotation
		JOINT lknee
		{
			OFFSET 0.043451 -0.386469 0.008037
			CHANNELS 3 Zrotation Yrotation Xrotation
			JOINT lankle
			{
				OFFSET -0.014790 -0.426874 -0.037428
				CHANNELS 3 Zrotation Yrotation Xrotation
				JOINT ltoe
				{
					OFFSET 0.041054 -0.060286 0.122042
					CHANNELS 3 Zrotation Yrotation Xrotation
					End Site
					{
						OFFSET 0.000000 0.000000 0.000000
					}
				}
			}
		}
	}
	JOINT rhip
	{
		OFFSET -0.060310 -0.090513 -0.013543
		CHANNELS 3 Zrotation Yrotation Xrotation
		JOINT rknee
		{
			OFFSET -0.043257 -0.383688 -0.004843
			CHANNELS 3 Zrotation Yrotation Xrotation
			JOINT rankle
			{
				OFFSET 0.019056 -0.420046 -0.034562
				CHANNELS 3 Zrotation Yrotation Xrotation
				JOINT rtoe
				{
					OFFSET -0.034840 -0.062106 0.130323
					CHANNELS 3 Zrotation Yrotation Xrotation
					End Site
					{
						OFFSET 0.000000 0.000000 0.000000
					}
				}
			}
		}
	}
	JOINT lowerback
	{
		OFFSET 0.004439 0.124404 -0.038385
		CHANNELS 3 Zrotation Yrotation Xrotation
		JOINT upperback
		{
			OFFSET 0.004488 0.137956 0.026820
			CHANNELS 3 Zrotation Yrotation Xrotation
			JOINT chest
			{
				OFFSET -0.002265 0.056032 0.002855
				CHANNELS 3 Zrotation Yrotation Xrotation
				JOINT lowerneck
				{
					OFFSET -0.013390 0.211636 -0.033468
					CHANNELS 3 Zrotation Yrotation Xrotation
					JOINT upperneck
					{
						OFFSET 0.010113 0.088937 0.050410
						CHANNELS 3 Zrotation Yrotation Xrotation
						End Site
						{
							OFFSET 0.000000 0.000000 0.000000
						}
					}
				}
				JOINT lclavicle
				{
					OFFSET 0.071702 0.114000 -0.018898
					CHANNELS 3 Zrotation Yrotation Xrotation
					JOINT lshoulder
					{
						OFFSET 0.122921 0.045205 -0.019046
						CHANNELS 3 Zrotation Yrotation Xrotation
						JOINT lelbow
						{
							OFFSET 0.255332 -0.015649 -0.022946
							CHANNELS 3 Zrotation Yrotation Xrotation
							JOINT lwrist
							{
								OFFSET 0.265709 0.012698 -0.007375
								CHANNELS 3 Zrotation Yrotation Xrotation
								End Site
								{
									OFFSET 0.000000 0.000000 0.000000
								}
							}
						}
					}
				}
				JOINT rclavicle
				{
					OFFSET -0.082954 0.112472 -0.023707
					CHANNELS 3 Zrotation Yrotation Xrotation
					JOINT rshoulder
					{
						OFFSET -0.113228 0.046853 -0.008472
						CHANNELS 3 Zrotation Yrotation Xrotation
						JOINT relbow
						{
							OFFSET -0.260127 -0.014369 -0.031269
							CHANNELS 3 Zrotation Yrotation Xrotation
							JOINT rwrist
							{
								OFFSET -0.269108 0.006794 -0.006027
								CHANNELS 3 Zrotation Yrotation Xrotation
								End Site
								{
									OFFSET 0.000000 0.000000 0.000000
								}
							}
						}
					}
				}
			}
		}
	}
}
MOTION
Frames: 17
Frame Time: 0.033333
1.216577 0.791398 0.824453 -86.337232 2.580289 98.067055 9.343465 -5.935313 -52.845055 -9.915020 4.160677 72.970853 6.103664 15.505348 -35.023354 0.000000 -0.000000 0.000000 -2.775483 6.298155 -51.214364 3.043138 -8.228120 73.511340 4.667080 -12.317383 -33.503041 0.000000 -0.000000 0.000000 -2.012269 -1.059453 35.232314 4.371016 -0.930819 -6.580039 1.019990 -2.784573 5.033040 -0.472791 -8.829372 -9.734510 1.009597 -11.332213 -17.654473 -24.052632 10.208548 6.115400 -43.239984 5.628480 6.554259 -2.581454 -40.277186 16.702408 3.155000 -3.121763 -10.392974 22.472569 -6.746217 1.254996 49.567506 -9.155160 6.818997 -7.102784 24.571101 -0.366716 -2.078251 2.303073 -3.450306 
1.218530 0.792509 0.790174 -88.430136 2.583925 98.176020 10.342051 -4.171869 -57.092341 -8.831074 6.889127 80.118762 6.610945 15.719443 -37.727292 0.000000 -0.000000 0.000000 -3.269712 7.261534 -56.106697 1.922956 -8.916901 80.897518 3.354258 -12.064375 -36.096063 0.000000 -0.000000 0.000000 -2.900570 0.135270 37.804975 4.077098 0.081572 -7.846937 1.005038 -2.591158 4.947804 -0.200773 -8.073915 -11.202307 0.748447 -11.818016 -17.114110 -24.866604 9.810169 5.293074 -43.887092 4.746820 5.857342 -1.176212 -39.648455 14.618021 5.136319 -3.105826 -9.985377 23.076192 -6.310519 1.815800 50.479601 -8.395184 6.863246 -7.681423 24.969464 -0.491835 -3.324366 2.487294 -4.440101 
1.220846 0.791890 0.757232 -88.168430 2.600126 98.774589 11.785019 -4.459765 -62.286911 -8.466049 8.907777 86.656782 6.646363 15.783425 -39.680546 0.000000 -0.000000 0.000000 -4.367603 6.558603 -61.207063 1.383128 -10.007943 87.809502 3.699211 -11.437156 -38.256591 0.000000 -0.000000 0.000000 -2.595874 -0.497689 39.540271 3.826856 0.149089 -9.316757 0.473950 -2.623675 5.225731 -0.327190 -7.707256 -12.071367 0.599437 -11.881494 -16.308267 -26.264941 8.556649 5.127098 -44.951164 2.807327 5.249130 2.618336 -38.962146 10.510766 6.601287 -2.731308 -9.987964 23.791707 -4.680416 2.356063 51.339504 -6.544013 7.426731 -8.300703 25.326149 -0.494911 -4.015255 2.537229 -4.902125 
1.222032 0.791722 0.732567 -87.863902 2.390707 98.587362 12.390745 -4.666377 -65.380637 -7.875524 10.135042 91.511595 6.796170 15.860977 -41.738883 0.000000 -0.000000 0.000000 -5.239126 5.920984 -63.911347 1.053082 -10.559896 92.733074 4.057371 -11.019610 -40.055067 0.000000 -0.000000 0.000000 -2.611978 -0.649503 41.665592 3.660144 0.207218 -10.069763 0.185697 -2.792648 4.988191 0.103697 -7.386261 -13.902341 0.261064 -12.254098 -15.235261 -28.096709 6.254774 4.186579 -45.304698 -0.093587 5.129181 5.513800 -37.356762 6.163836 8.938733 -2.521632 -10.200463 25.457804 -2.161663 2.055425 50.928829 -3.818946 8.851286 -8.734317 26.190305 -1.315597 -5.272482 2.777143 -4.854698 
1.216674 0.792719 0.718890 -87.674520 2.629799 97.725866 12.638381 -4.380992 -65.445814 -7.754534 10.236620 93.959116 6.315634 15.352850 -42.963381 0.000000 -0.000000 0.000000 -4.591427 5.711198 -63.919008 0.797905 -10.167714 95.260048 4.496588 -11.033575 -41.251021 0.000000 -0.000000 0.000000 -2.597287 -0.490724 43.005496 3.064898 0.302633 -9.664626 -0.146365 -2.443091 5.173422 1.631916 8.392377 -24.929919 3.381694 -2.804352 -14.164484 -30.411166 1.303178 1.511762 -43.518017 -1.730966 6.473734 7.799822 -36.276374 0.076969 10.807767 -4.053778 -8.776329 30.341450 1.649158 0.852187 47.138396 -0.430288 11.493445 -9.469403 27.294150 -2.997913 -4.174153 3.668197 -4.542440 
1.211831 0.793450 0.712780 -86.453956 2.823749 96.522023 12.230938 -5.297196 -64.452522 -7.999970 9.574619 94.874067 6.412540 15.578328 -43.409899 0.000000 -0.000000 0.000000 -4.483699 5.122514 -62.593959 0.545886 -10.311399 96.342002 4.834011 -11.312668 -41.711966 0.000000 -0.000000 0.000000 -2.331979 -0.808287 43.918831 3.196764 -0.236139 -9.982002 -0.035984 -2.294333 5.199411 2.462327 6.823923 -25.045866 2.763703 -4.532157 -12.535497 -30.185335 -2.340045 1.931603 -43.048576 -4.618106 7.053381 7.956793 -38.270811 -1.732040 10.833550 -3.891289 -10.050208 30.252498 6.323284 1.066932 46.687808 4.497293 12.429856 -9.664288 29.360411 -3.895030 -4.248349 3.888460 -3.766647 
1.204582 0.793942 0.720361 -85.608829 2.803274 95.063692 11.014651 -6.319474 -61.114043 -7.833702 8.139087 93.497060 6.116688 15.425200 -43.744080 0.000000 -0.000000 0.000000 -3.473442 4.876916 -59.566995 -0.082758 -9.355890 95.356361 5.309739 -11.449489 -41.642109 0.000000 -0.000000 0.000000 -2.599965 -0.499516 43.685591 3.117471 -0.602502 -9.435616 0.114814 -1.895079 4.809812 1.479588 8.550061 -25.433233 3.211778 -4.016726 -14.008436 -27.473516 -4.422948 0.420489 -42.380961 -6.178006 8.743059 5.235984 -45.060672 3.218473 8.364366 -4.023457 -10.818701 29.356748 9.935151 -0.610974 46.518485 9.671875 13.344707 -11.136247 33.681825 -4.004012 -1.846402 3.384415 -2.787119 
1.194440 0.794333 0.742106 -85.002213 2.916267 93.965644 9.113705 -6.662962 -55.969501 -8.292761 5.499798 89.530931 5.706212 15.500341 -43.120994 0.000000 -0.000000 0.000000 -1.742509 4.676900 -54.787954 -0.333500 -8.010975 91.407516 5.537347 -11.983783 -40.536783 0.000000 -0.000000 0.000000 -2.557046 -0.003149 41.567720 2.684686 -0.279944 -9.287151 -0.109015 -0.759466 5.092190 1.452625 9.324389 -25.079004 2.225884 -5.589963 -10.625303 -23.451572 -5.722105 -1.392982 -39.779360 -7.151644 10.854116 -0.851522 -55.285346 12.021295 7.399386 -4.951143 -10.464078 26.369492 12.441843 -2.910558 46.501105 12.693979 14.486725 -14.700027 43.139134 -7.128650 -0.722662 3.268071 -6.007493 
1.179273 0.794351 0.778341 -83.764904 3.112622 92.524052 7.072854 -6.666217 -48.730935 -8.835279 2.291499 82.759633 4.841084 15.198716 -40.017701 0.000000 -0.000000 0.000000 0.191861 3.438658 -47.848506 -0.087512 -7.044008 84.654070 6.122913 -12.872024 -38.464792 0.000000 -0.000000 0.000000 -1.639309 0.949116 38.113829 2.185710 0.392409 -8.448053 -0.362711 0.022053 5.594988 0.332900 9.203928 -24.429584 2.330714 -6.610448 -8.030755 -18.170372 -7.218791 -3.068576 -36.697151 -7.851057 12.565009 -9.397760 -65.503458 21.227405 9.091152 -6.283145 -11.609753 22.042283 13.950672 -6.066110 43.170694 13.602959 14.688716 -20.258148 55.884263 -11.726696 -1.542499 4.636046 -6.975997 
1.158696 0.792988 0.831381 -81.329509 2.647466 91.009089 4.418643 -6.476513 -39.568475 -9.686489 -1.354403 72.739457 4.015272 14.545916 -33.547906 0.000000 -0.000000 0.000000 0.747668 1.389603 -38.635937 0.847710 -6.027731 74.060528 6.986578 -13.981665 -32.163194 0.000000 -0.000000 0.000000 -0.672231 1.913808 33.451259 1.669821 0.720997 -7.534213 -0.441296 0.157765 6.332468 -0.526090 8.153634 -23.517524 2.607831 -6.788656 -4.981688 -13.399184 -7.800784 -4.494982 -33.764428 -7.649562 13.950709 -21.836420 -73.749202 34.478789 9.250688 -7.047288 -12.735504 16.593607 13.841427 -10.104509 38.508904 12.313971 15.124037 -30.033777 67.200248 -20.761218 -1.225742 5.074519 -6.592488 
1.135426 0.790803 0.901283 -78.506571 2.261839 90.198481 2.856958 -5.998364 -28.786336 -10.137169 -5.544964 57.922151 2.123809 12.530381 -22.909185 0.000000 -0.000000 0.000000 0.718844 -0.795732 -29.290939 1.559629 -5.038872 60.908719 6.274378 -14.023815 -21.703858 0.000000 -0.000000 0.000000 -0.459128 3.049946 25.936404 1.497179 1.275262 -5.197318 -0.608102 0.529241 7.855497 -0.470880 8.026970 -22.650012 1.896253 -7.803875 -1.929732 -9.187319 -5.268248 -6.623483 -34.008096 -10.827802 15.093041 -35.704561 -75.829319 51.021369 6.404635 -9.707239 -11.680147 12.126028 10.297741 -13.180438 35.610309 11.896282 15.955686 -38.711471 73.188485 -28.309243 -0.321701 7.284364 -9.112572 
1.112309 0.785080 0.992651 -74.969500 1.946423 90.380324 3.028806 -6.641551 -15.916629 -9.314248 -9.823183 35.570346 -2.473597 9.543867 -4.353123 0.000000 -0.000000 0.000000 -0.058517 -2.761838 -18.809934 1.770166 -4.855834 41.849575 6.649539 -12.394287 -3.456121 0.000000 -0.000000 0.000000 -0.847575 4.161955 17.505100 1.446403 1.683961 -1.921476 -0.557275 0.357965 8.180261 -0.729680 7.597682 -21.561584 2.012749 -7.963873 0.722012 -9.249522 -2.703734 -7.648348 -37.051559 -13.323787 17.839614 -29.042012 -75.507460 44.523272 4.324516 -11.234137 -11.836429 12.639235 6.226823 -14.340597 35.215364 10.112405 18.326601 -35.211045 73.378709 -24.444392 2.180605 8.376301 -9.004116 
1.093706 0.776092 1.097741 -68.573593 1.024555 91.167094 2.886289 -9.340619 -2.923701 -3.098719 -11.392278 4.912465 -14.678945 10.732600 30.005021 0.000000 -0.000000 0.000000 -1.208714 -3.184320 -7.123427 -0.555946 -8.754009 16.050496 10.468775 -12.395066 28.163066 0.000000 -0.000000 0.000000 -1.591159 4.526556 8.914789 1.269028 0.422003 2.183762 -0.723447 -0.596759 9.573412 -1.096935 8.318862 -22.970227 2.194561 -9.516617 3.399092 -13.987332 -0.597354 -11.066211 -40.268138 -14.681937 27.003351 -2.047444 -72.863422 13.720157 3.798187 -11.024681 -8.743013 17.168012 4.013377 -18.621244 35.140360 6.996317 28.104046 -23.683261 67.314884 -16.686433 -4.040492 6.034987 -3.337728 
1.082235 0.764617 1.194085 -60.046411 -0.182425 93.874162 1.832170 -4.285839 -2.383334 -2.760576 -3.661606 -5.990578 -18.267002 12.142311 34.943201 0.000000 -0.000000 0.000000 -2.472822 -6.162067 -3.143641 1.111691 -11.983168 1.175389 10.732320 -13.630032 42.446607 0.000000 -0.000000 0.000000 -2.101761 2.786940 1.297204 0.919869 -1.866478 4.197314 -1.443476 -1.048149 9.712550 -1.013830 6.645312 -21.740011 2.597292 -8.394816 4.320565 -19.743284 0.719842 -10.624953 -40.860064 -14.844504 27.761755 -0.679954 -69.269635 11.190599 2.546161 -11.622056 -3.857063 23.635725 1.777821 -15.742422 33.481758 6.780475 28.897969 -10.614971 61.605588 -4.874090 -3.366753 6.167492 0.905607 
1.083968 0.758319 1.272250 -51.823662 -0.732831 93.921764 1.525514 -7.283539 -3.762954 -3.745350 0.058957 -0.563304 -12.809701 14.778986 36.766117 0.000000 -0.000000 0.000000 -3.187709 -5.227868 -4.781895 1.641266 -11.729795 8.000230 6.979122 -15.037077 42.262954 0.000000 -0.000000 0.000000 -1.641944 1.847691 0.849597 1.404391 -2.613449 4.727428 -2.180677 -2.175044 9.144963 -1.651453 5.203171 -21.018692 3.085104 -7.234499 4.620453 -24.685234 -0.197229 -9.931537 -40.439459 -16.713645 28.785036 -1.249804 -65.870857 10.600234 1.960562 -11.837137 -2.728061 29.129536 0.659847 -15.009355 30.487776 4.693680 29.984071 -7.775571 58.238705 -3.539679 -2.520990 6.088274 1.471169 
1.084044 0.753748 1.340377 -45.478417 -0.171287 89.485780 1.425598 -6.459679 -2.101212 -4.062888 -2.990866 9.817832 -11.556853 14.804964 34.091540 0.000000 -0.000000 0.000000 -2.150409 -4.073172 -4.221253 0.429049 -7.237542 19.140068 9.089708 -11.345523 38.541123 0.000000 -0.000000 0.000000 -0.314556 1.814696 7.294423 1.674731 -1.962466 3.464610 -2.287799 -2.705356 8.276310 -3.009613 4.830633 -20.667968 3.895927 -7.035261 4.569890 -25.838413 -3.008385 -10.048031 -43.429748 -16.668368 29.124537 -0.448847 -60.920966 10.803502 -0.464317 -10.694554 -2.471024 30.803053 0.826319 -16.164252 31.520444 -0.308937 28.701047 -7.391083 55.207640 -4.349351 -0.856996 5.930385 0.170441 
1.079331 0.747761 1.394649 -39.479017 -0.314399 87.068473 1.635442 -6.472661 -0.988999 -4.733769 -5.271327 15.654995 -11.185534 12.858916 32.619273 0.000000 -0.000000 0.000000 -1.423798 -3.568484 -3.441154 -0.280037 -1.994236 23.243063 8.992376 -7.900895 37.089625 0.000000 -0.000000 0.000000 -1.104958 1.767400 7.919165 2.019647 -2.693266 5.842637 -1.682433 -2.870251 8.621132 -3.842556 4.469316 -19.812557 5.241248 -6.604305 3.726493 -25.651786 -4.478027 -9.038503 -47.473061 -16.714945 27.231930 3.137201 -56.410854 7.399448 0.205755 -9.720109 -1.162220 29.948949 0.766725 -13.495386 35.646453 -1.744393 25.873773 -8.238915 52.381034 -7.098351 -2.194403 3.549386 -5.203262 
